<svg width="643" height="534" viewBox="0 0 643 534" fill="none" xmlns="http://www.w3.org/2000/svg">
<g clip-path="url(#clip0_59_47)">
<path d="M607.5 258.748L553.904 311.171L504.631 405.872L449.112 512.799L380.942 480.662L307.327 442.707L354.518 352.222L383.718 250.901C363.059 264.727 324.676 283.518 278.553 273.749C228.64 263.126 252.609 74.2562 252.609 74.2562L307.327 72.8148L312.772 205.899L374.696 178.407L374.857 178.567C378.54 176.965 381.903 175.364 383.505 174.403C417.777 155.612 440.144 153.37 476.978 166.502L529.935 184.172C543.601 190.898 593.888 215.668 607.5 258.748Z" fill="#BE1527"/>
<g clip-path="url(#clip1_59_47)">
<path d="M433.227 279.278L431.213 282.079L422.175 277.939L432.225 263.897L435.418 265.36L427.382 276.6L433.227 279.278Z" fill="white"/>
<path d="M439.91 285.972C439.966 285.867 440.017 285.721 440.021 285.546C440.035 284.944 439.459 284.488 439.087 284.31C438.444 284 437.614 284.166 436.95 284.708C436.473 284.489 435.995 284.271 435.518 284.052L431.817 282.356C438.069 278.788 444.312 275.222 450.555 271.657C449.063 277.399 447.578 283.144 446.086 288.886L442.855 287.406C441.871 286.932 440.891 286.452 439.91 285.972ZM437.538 284.97C441.839 280.553 446.14 276.137 450.451 271.717C444.979 275.597 439.508 279.477 434.033 283.364C435.197 283.897 436.367 284.433 437.538 284.97Z" fill="white"/>
<path d="M452.099 283.638L453.36 273.581L456.667 275.096L455.721 281.142L461.711 277.407L465.47 279.129L455.257 285.093L450.948 291.122L447.787 289.673L452.099 283.638Z" fill="white"/>
<path d="M459.674 285.832C462.555 281.341 467.915 279.703 472.157 281.916C476.201 284.023 477.128 288.518 474.4 292.725C471.512 297.181 466.16 298.768 461.943 296.567C457.941 294.487 456.969 290.04 459.674 285.832ZM471.24 291.207C473.018 288.621 472.444 285.826 470.165 284.736C467.854 283.615 464.625 284.683 462.852 287.295C461.125 289.821 461.601 292.594 463.925 293.72C466.309 294.881 469.504 293.736 471.24 291.207Z" fill="white"/>
<path d="M493.041 291.762L475.903 303.017L475.578 302.868L479.074 285.362L482.311 286.846L480.168 296.445L489.339 290.066L493.041 291.762Z" fill="white"/>
<path d="M495.773 296.699L493.809 299.439L498.681 301.672L496.664 304.479L491.792 302.247L489.724 305.148L495.461 307.776L493.447 310.578L484.536 306.495L494.586 292.454L503.503 296.539L501.516 299.315L495.779 296.686L495.773 296.699Z" fill="white"/>
<path d="M506.9 309.331L507.109 316.853L503.579 315.235L503.624 306.537L498.93 313.105L495.749 311.648L505.793 297.604L510.341 299.688C512.758 300.795 514.425 303.621 512.403 306.674C511.128 308.567 509.048 309.615 506.9 309.331ZM508.395 302.506L506.971 301.853L504.439 305.379L505.858 306.045C507.182 306.667 508.566 306.316 509.25 305.259C509.936 304.181 509.483 303.004 508.395 302.506Z" fill="white"/>
<path d="M512.085 319.125C512.949 319.521 513.971 319.141 514.367 318.277C514.763 317.413 514.383 316.392 513.519 315.996C512.655 315.6 511.634 315.979 511.238 316.844C510.842 317.708 511.221 318.729 512.085 319.125Z" fill="#C84B4F"/>
<path d="M450.243 272.153L439.445 284.535C439.445 284.535 439.024 284.212 438.675 284.183C438.327 284.154 438.327 284.154 438.327 284.154L450.243 272.153Z" fill="#C84B4F"/>
</g>
<path d="M420.072 162.765C420.072 162.765 418.791 163.406 416.709 165.007C414.627 166.449 411.744 169.011 409.022 172.588C406.299 176.271 403.577 181.129 401.495 186.734C399.253 192.34 397.651 198.959 395.89 205.685C392.206 219.191 388.843 231.416 386.441 240.384C385.159 244.708 384.199 248.285 383.558 250.847C383.238 251.969 382.917 252.929 382.757 253.73C382.597 254.371 382.437 254.691 382.437 254.691C382.437 254.691 382.437 254.371 382.597 253.73C382.757 252.929 383.078 251.969 383.238 250.847C383.878 248.285 384.839 244.762 385.96 240.224C388.362 231.202 391.565 219.031 395.089 205.365C396.85 198.639 398.612 192.019 400.854 186.414C403.096 180.649 405.819 175.791 408.701 172.267C411.584 168.584 414.467 166.182 416.709 164.687C417.83 164.046 418.631 163.566 419.271 163.246C419.752 162.925 420.072 162.765 420.072 162.765Z" fill="#263238"/>
<g opacity="0.3">
<g opacity="0.3">
<path opacity="0.3" d="M400.053 189.457C384.679 231.096 357.133 254.424 318.27 275.297C318.27 275.297 351.742 272.895 382.597 251.648" fill="black"/>
</g>
</g>
<g opacity="0.3">
<g opacity="0.3">
<path opacity="0.3" d="M433.258 159.883C439.824 264.193 446.23 368.557 452.796 473.028L433.578 512.745L433.258 159.883Z" fill="black"/>
</g>
</g>
<path d="M509.222 268.09C509.062 268.25 506.98 263.286 504.257 257.307C501.535 251.381 499.132 246.684 499.292 246.523C499.453 246.523 500.093 247.644 501.214 249.406C502.335 251.328 503.617 253.89 505.058 256.987C506.499 260.029 507.46 262.752 508.261 264.727C509.062 266.809 509.382 268.09 509.222 268.09Z" fill="#FAFAFA"/>
<path d="M552.889 246.043C553.049 246.203 548.405 249.406 542.48 253.09C536.554 256.773 531.75 259.496 531.589 259.335C531.429 259.175 536.074 255.972 541.999 252.289C547.764 248.766 552.729 245.883 552.889 246.043Z" fill="#FAFAFA"/>
<path d="M533.831 230.295C533.671 230.295 533.191 226.451 533.031 221.754C532.71 217.109 532.71 213.212 533.031 213.212C533.191 213.212 533.671 217.056 533.831 221.754C534.152 226.451 534.152 230.295 533.831 230.295Z" fill="#FAFAFA"/>
<path d="M577.392 227.252C577.232 227.412 573.709 225.491 569.545 222.928C565.381 220.366 562.018 218.124 562.178 217.803C562.338 217.643 565.861 219.565 570.025 222.127C574.189 224.69 577.552 227.092 577.392 227.252Z" fill="#FAFAFA"/>
<path d="M510.984 313.893C510.823 313.733 512.745 308.768 515.308 302.789C517.87 296.704 520.112 291.846 520.432 292.006C520.592 292.166 518.671 297.131 516.108 303.11C513.386 309.249 511.144 314.053 510.984 313.893Z" fill="#FAFAFA"/>
<path d="M491.445 333.645C491.285 333.805 489.523 330.602 487.602 326.758C485.68 322.915 484.239 319.498 484.399 319.498C484.559 319.338 486.321 322.541 488.242 326.385C490.324 330.282 491.766 333.485 491.445 333.645Z" fill="#FAFAFA"/>
<path d="M507.781 360.176C507.781 360.336 504.257 361.618 499.613 362.258C494.969 362.952 491.125 362.792 491.125 362.578C491.125 362.258 494.969 362.098 499.453 361.457C503.937 360.817 507.62 359.856 507.781 360.176Z" fill="#FAFAFA"/>
<path d="M528.6 331.082C528.44 330.922 529.721 327.559 531.483 323.182C533.244 319.018 534.846 315.601 535.166 315.601C535.326 315.761 534.045 319.124 532.283 323.502C530.362 327.879 528.76 331.242 528.6 331.082Z" fill="#FAFAFA"/>
<path d="M477.993 392.527C477.833 392.687 475.43 389.484 472.227 385.64C469.024 381.957 466.142 379.074 466.302 378.914C466.462 378.754 469.665 381.316 472.868 385.16C476.071 388.79 478.153 392.366 477.993 392.527Z" fill="#FAFAFA"/>
<path d="M468.704 326.598C468.864 326.758 467.102 330.281 464.54 334.659C461.978 338.983 459.896 342.399 459.575 342.399C459.415 342.239 461.177 338.716 463.739 334.339C466.302 329.801 468.544 326.438 468.704 326.598Z" fill="#FAFAFA"/>
<path d="M475.27 303.75C475.27 303.91 471.266 303.11 466.302 301.828C461.337 300.547 457.494 299.426 457.494 299.106C457.494 298.946 461.497 299.746 466.462 301.028C471.427 302.309 475.43 303.59 475.27 303.75Z" fill="#FAFAFA"/>
<path d="M474.95 257.307C475.11 257.147 477.192 260.189 479.754 263.873C482.317 267.556 484.399 270.439 484.239 270.599C484.078 270.759 481.676 268.037 479.114 264.353C476.391 260.51 474.79 257.307 474.95 257.307Z" fill="#FAFAFA"/>
<path d="M460.269 254.905C460.43 255.065 457.867 257.467 454.664 260.35C451.461 263.072 448.739 265.314 448.579 265.154C448.418 264.994 450.981 262.592 454.184 259.709C457.387 256.987 460.109 254.744 460.269 254.905Z" fill="#FAFAFA"/>
<path d="M471.747 230.615C471.587 230.775 468.064 227.893 464.38 223.355C460.697 219.031 458.294 214.974 458.455 214.814C458.615 214.654 461.337 218.497 465.021 222.714C468.704 227.252 471.907 230.455 471.747 230.615Z" fill="#FAFAFA"/>
<path d="M512.745 223.088C512.745 223.248 508.741 224.69 503.777 226.291C498.812 227.893 494.648 228.854 494.488 228.693C494.488 228.533 498.492 227.092 503.456 225.491C508.581 223.889 512.745 222.928 512.745 223.088Z" fill="#FAFAFA"/>
<path d="M455.091 183.852C454.771 183.852 454.931 180.168 454.451 175.631C453.97 171.147 452.849 167.57 453.17 167.57C453.33 167.57 454.771 170.933 455.252 175.631C455.732 180.168 455.252 184.012 455.091 183.852Z" fill="#FAFAFA"/>
<path d="M418.791 300.547C418.791 300.707 417.349 301.668 414.947 303.27C412.545 304.871 409.342 307.274 405.819 309.996C402.295 312.719 399.253 315.281 397.171 317.256C394.929 319.178 393.647 320.299 393.647 320.299C393.647 320.299 394.768 318.858 396.85 316.936C398.932 314.854 401.975 312.292 405.338 309.516C408.862 306.793 412.064 304.551 414.627 302.949C417.029 301.188 418.631 300.387 418.791 300.547Z" fill="#FAFAFA"/>
<path d="M416.549 287.522C416.389 287.682 413.666 283.518 409.983 278.5C406.299 273.535 402.936 269.799 403.096 269.638C403.256 269.638 404.057 270.439 405.498 271.881C406.94 273.322 408.701 275.404 410.623 277.966C412.545 280.368 413.986 282.771 415.107 284.532C416.228 286.401 416.709 287.522 416.549 287.522Z" fill="#FAFAFA"/>
<path d="M426.318 236.754C426.478 236.914 422.955 238.996 418.631 241.399C414.307 243.801 410.623 245.562 410.623 245.402C410.463 245.242 413.986 243.16 418.31 240.758C422.634 238.356 426.318 236.594 426.318 236.754Z" fill="#FAFAFA"/>
<path d="M416.709 214.547C416.709 214.707 415.588 213.906 413.986 212.305C412.385 210.863 410.303 208.781 408.221 206.219C406.139 203.657 404.377 201.254 403.416 199.333C402.295 197.411 401.815 196.29 401.815 196.29C401.975 196.13 404.698 200.774 408.861 205.792C413.025 210.863 416.869 214.387 416.709 214.547Z" fill="#FAFAFA"/>
<path d="M433.364 214.067C433.204 213.906 434.485 210.864 436.247 206.967C438.009 203.123 439.77 200.24 439.931 200.401C440.091 200.561 438.809 203.604 437.048 207.447C435.126 211.184 433.525 214.227 433.364 214.067Z" fill="#FAFAFA"/>
<path d="M428.88 188.656C428.56 188.656 428.88 183.691 427.919 177.552C426.958 171.467 425.197 166.769 425.517 166.769C425.677 166.769 426.158 167.89 426.798 169.812C427.439 171.734 428.24 174.456 428.72 177.552C429.201 180.595 429.361 183.478 429.201 185.453C429.201 187.535 429.04 188.656 428.88 188.656Z" fill="#FAFAFA"/>
<path d="M433.044 316.776C432.884 316.776 433.044 315.014 433.044 312.131C433.204 309.249 433.204 305.245 433.044 300.868C432.884 296.49 432.724 292.54 432.403 289.604C432.083 286.721 431.923 284.959 432.083 284.959C432.243 284.959 432.564 286.721 433.044 289.604C433.364 292.486 433.845 296.49 434.005 301.028C434.165 305.512 434.005 309.569 433.685 312.452C433.364 315.014 433.044 316.776 433.044 316.776Z" fill="#FAFAFA"/>
<path d="M430.642 356.813C430.482 356.973 427.759 353.77 423.595 351.048C419.431 348.325 415.267 347.204 415.428 347.044C415.428 346.884 419.752 347.524 424.076 350.407C428.24 353.13 430.802 356.653 430.642 356.813Z" fill="#FAFAFA"/>
<path d="M450.607 381.583C450.767 381.743 445.803 384.626 439.557 387.668C433.311 390.871 428.346 393.274 428.186 393.113C428.026 392.953 432.991 390.231 439.237 387.028C445.322 383.825 450.447 381.423 450.607 381.583Z" fill="#FAFAFA"/>
<path d="M394.128 392.526C393.968 392.686 390.284 388.042 385.96 382.223C381.636 376.458 378.273 371.44 378.593 371.44C378.753 371.28 382.437 375.924 386.761 381.743C391.085 387.508 394.448 392.366 394.128 392.526Z" fill="#FAFAFA"/>
<path d="M376.832 346.83C376.672 346.83 376.511 345.549 376.511 343.467C376.351 341.385 376.351 338.663 376.511 335.406C376.672 332.363 376.992 329.481 377.152 327.345C377.472 325.263 377.632 324.142 377.793 324.142C377.953 324.142 377.472 329.107 377.312 335.406C376.992 341.705 376.992 346.83 376.832 346.83Z" fill="#FAFAFA"/>
<path d="M357.934 424.823C357.774 424.983 353.61 421.78 348.645 417.616C343.681 413.452 339.677 409.876 339.837 409.716C339.997 409.555 344.161 412.758 349.126 416.976C354.251 421.14 358.094 424.663 357.934 424.823Z" fill="#FAFAFA"/>
<path d="M369.305 422.421C369.144 422.421 368.824 416.816 368.664 409.876C368.504 402.989 368.504 397.331 368.824 397.331C368.984 397.331 369.305 402.936 369.465 409.876C369.625 416.762 369.465 422.421 369.305 422.421Z" fill="#FAFAFA"/>
<path d="M391.565 470.786C391.565 470.946 389.644 470.145 386.281 469.024C383.078 468.064 378.593 466.782 373.469 466.142C368.344 465.501 363.699 465.341 360.336 465.501C356.973 465.661 354.891 465.821 354.891 465.661C354.891 465.661 355.372 465.501 356.333 465.341C357.293 465.181 358.575 465.021 360.336 464.861C363.699 464.54 368.504 464.54 373.629 465.181C378.753 465.821 383.398 467.263 386.601 468.384C388.202 469.024 389.484 469.505 390.284 469.985C391.085 470.466 391.565 470.786 391.565 470.786Z" fill="#FAFAFA"/>
<path d="M409.822 479.648C409.822 479.487 411.264 480.448 413.506 482.21C415.588 483.811 418.471 486.374 421.353 489.31C424.236 492.193 426.798 495.075 428.4 497.211C430.001 499.293 430.962 500.734 430.962 500.894C430.802 500.894 429.841 499.613 428.079 497.691C426.318 495.609 423.755 492.887 420.873 490.004C417.99 487.121 415.268 484.559 413.186 482.744C411.104 480.929 409.822 479.808 409.822 479.648Z" fill="#FAFAFA"/>
<path d="M417.83 395.889C417.67 396.05 415.748 391.726 413.666 386.547C411.584 381.262 410.143 376.885 410.303 376.885C410.463 376.725 412.385 381.049 414.467 386.227C416.549 391.565 418.15 395.889 417.83 395.889Z" fill="#FAFAFA"/>
<path d="M353.663 233.017C353.663 233.017 352.863 234.139 351.261 235.74C349.66 237.341 347.257 239.263 344.375 241.185C341.492 243.107 338.769 244.548 336.687 245.509C334.606 246.47 333.324 246.79 333.324 246.79C333.164 246.63 338.289 244.388 343.894 240.544C349.499 236.754 353.343 232.857 353.663 233.017Z" fill="#FAFAFA"/>
<path d="M357.614 215.988C357.454 215.988 357.293 212.785 357.614 208.728C357.774 204.725 358.094 201.628 358.414 201.628C358.575 201.628 358.735 204.831 358.414 208.888C358.254 212.785 357.934 215.988 357.614 215.988Z" fill="#FAFAFA"/>
<path d="M325.797 230.295C325.637 230.455 321.954 229.014 317.47 226.932C312.985 224.85 309.462 223.088 309.462 222.768C309.622 222.608 313.306 224.049 317.79 226.131C322.274 228.213 325.797 230.135 325.797 230.295Z" fill="#FAFAFA"/>
<path d="M382.757 208.461C382.597 208.461 382.597 204.457 383.078 199.6C383.398 194.795 383.878 190.738 384.199 190.738C384.359 190.738 384.359 194.742 383.878 199.6C383.398 204.564 382.917 208.461 382.757 208.461Z" fill="#FAFAFA"/>
<path d="M308.821 264.407C308.821 264.567 304.497 263.286 299.693 260.403C294.888 257.521 291.685 254.318 291.846 254.157C292.006 253.997 295.369 256.88 300.173 259.602C304.818 262.432 308.821 264.087 308.821 264.407Z" fill="#FAFAFA"/>
<path d="M284.959 231.576C285.119 231.736 282.077 235.42 278.073 239.797C274.069 244.121 270.866 247.538 270.706 247.378C270.546 247.217 273.589 243.534 277.592 239.157C281.596 234.779 284.799 231.416 284.959 231.576Z" fill="#FAFAFA"/>
<path d="M283.037 202.322C282.877 202.482 279.354 201.041 275.51 198.158C271.667 195.276 269.318 192.179 269.478 192.179C269.638 192.019 272.361 194.742 276.044 197.464C279.834 200.24 283.037 202.162 283.037 202.322Z" fill="#FAFAFA"/>
<path d="M268.197 208.461C268.357 208.622 266.916 210.703 264.834 213.106C262.752 215.508 260.99 217.43 260.83 217.27C260.67 217.109 262.111 215.028 264.193 212.625C266.115 210.223 267.877 208.301 268.197 208.461Z" fill="#FAFAFA"/>
<path d="M300.173 154.117C300.334 154.277 297.611 157.961 293.928 162.498C290.244 166.983 287.201 170.399 287.041 170.399C286.881 170.239 289.604 166.555 293.287 162.018C296.81 157.48 300.013 153.957 300.173 154.117Z" fill="#FAFAFA"/>
<path d="M272.681 160.203C272.521 160.363 269.478 157.16 265.795 152.943C262.271 148.779 259.389 145.362 259.549 145.202C259.709 145.042 262.752 148.245 266.435 152.462C270.119 156.68 272.841 160.043 272.681 160.203Z" fill="#FAFAFA"/>
<path d="M286.401 125.344C286.24 125.504 283.998 121.981 281.596 117.763C279.194 113.439 277.272 109.863 277.592 109.702C277.752 109.542 279.995 113.066 282.397 117.283C284.799 121.607 286.561 125.344 286.401 125.344Z" fill="#FAFAFA"/>
<path d="M285.76 102.816C285.6 102.656 288.002 99.613 289.924 95.2356C291.846 90.8582 292.486 87.0146 292.807 87.1748C292.967 87.1748 292.646 91.1785 290.725 95.5559C288.643 100.093 285.76 102.976 285.76 102.816Z" fill="#FAFAFA"/>
<path d="M259.229 101.535C259.068 101.535 258.748 96.8904 261.15 91.7122C262.271 89.1498 263.873 87.0679 264.994 85.7867C266.275 84.5055 267.076 83.7048 267.236 83.8649C267.396 84.0251 264.033 87.0679 261.791 92.0859C259.709 97.0505 259.549 101.535 259.229 101.535Z" fill="#FAFAFA"/>
<path d="M490.004 63.2591C489.524 56.5328 489.043 49.9133 489.684 43.187C490.484 36.6209 492.727 29.8412 497.051 24.8766C501.375 19.7518 508.101 16.4954 514.827 17.2962C518.991 17.7766 522.835 19.8586 526.838 19.6984C531.643 19.5383 535.807 16.6556 540.131 14.5737C546.857 11.5308 554.704 10.7301 561.911 12.3316C565.755 13.1323 569.438 14.7338 572.321 17.6165C575.043 20.339 576.645 24.5029 575.684 28.3999C580.488 28.3999 585.453 28.3999 590.097 29.6811C594.742 30.9623 599.226 33.5247 601.628 37.7419C604.03 41.9058 603.87 47.7246 600.507 51.0877C604.991 50.1268 609.636 53.6501 610.757 57.9741C611.878 62.4583 609.636 67.3162 605.952 69.8786C602.269 72.6011 595.382 73.7222 591.058 72.9214C586.574 72.1207 581.449 70.8395 577.926 68.117" fill="#263238"/>
<path d="M486.481 214.707C504.898 219.512 523.635 208.461 528.44 189.937C531.162 179.634 533.404 170.986 533.404 170.986C533.404 170.986 560.149 175.631 568.958 150.114C577.766 124.703 592.98 64.5937 592.98 64.5937C567.783 41.9059 532.23 34.8059 500.414 45.9096L495.609 47.5111L461.658 171.787C456.693 190.578 467.903 209.903 486.481 214.707Z" fill="#B65B52"/>
<path d="M533.671 170.666C533.671 170.666 517.176 166.502 503.723 150.114C503.723 150.114 505.485 171.146 531.589 177.446L533.671 170.666Z" fill="#994840"/>
<path d="M490.164 75.1637C489.844 74.8434 474.469 64.06 469.184 81.7298C463.9 99.3996 482.637 101.001 482.797 100.521C482.957 99.9334 490.164 75.1637 490.164 75.1637Z" fill="#B65B52"/>
<path d="M479.434 92.1928C479.434 92.1928 479.114 92.353 478.473 92.353C477.833 92.353 477.032 92.353 476.231 91.7124C474.63 90.4312 473.829 87.068 474.79 83.8117C475.27 82.2102 476.071 80.7688 477.032 79.6478C477.993 78.5267 479.114 77.8861 480.075 78.0463C481.036 78.0463 481.516 78.847 481.676 79.4876C481.836 80.1282 481.516 80.2884 481.676 80.4485C481.676 80.4485 482.157 80.2884 482.157 79.4876C482.157 79.1673 482.157 78.6869 481.836 78.2064C481.516 77.726 480.875 77.4057 480.235 77.2456C478.794 76.9253 477.192 77.8862 476.231 79.0072C475.11 80.1282 474.149 81.7297 473.669 83.6515C472.708 87.1748 473.509 91.0718 475.911 92.6733C477.032 93.3139 478.153 93.3139 478.794 92.9936C479.274 92.5131 479.434 92.1928 479.434 92.1928Z" fill="#B65B52"/>
<path d="M571.467 101.375C570.826 103.296 568.744 104.418 566.662 103.937C564.58 103.296 563.459 101.375 563.94 99.4529C564.58 97.5311 566.662 96.4101 568.744 96.8905C570.986 97.5311 572.107 99.4529 571.467 101.375Z" fill="#263238"/>
<path d="M576.271 98.9725C575.631 99.2928 573.549 96.4101 569.705 94.9688C565.861 93.6876 562.338 94.6485 562.018 94.0079C561.858 93.6876 562.658 93.047 564.26 92.5665C565.861 92.0861 568.264 91.9259 570.666 92.7267C573.068 93.5274 574.83 95.1289 575.791 96.4101C576.431 97.8514 576.591 98.8123 576.271 98.9725Z" fill="#263238"/>
<path d="M533.031 88.5095C532.39 90.4313 530.308 91.5523 528.226 91.0718C526.144 90.4313 525.023 88.5095 525.504 86.5877C526.144 84.6659 528.226 83.5448 530.308 84.0253C532.55 84.5057 533.671 86.5877 533.031 88.5095Z" fill="#263238"/>
<path d="M537.675 86.7475C537.034 87.0678 534.952 84.1851 531.109 82.7438C527.265 81.4626 523.742 82.4235 523.422 81.7829C523.262 81.4626 524.062 80.822 525.664 80.3415C527.265 79.8611 529.668 79.7009 532.07 80.5017C534.472 81.3024 536.234 82.9039 537.195 84.1851C537.835 85.6265 537.835 86.5874 537.675 86.7475Z" fill="#263238"/>
<path d="M529.668 119.525C530.308 119.685 528.867 124.009 531.589 128.227C534.152 132.39 538.956 133.511 538.796 134.152C538.796 134.472 537.515 134.632 535.593 133.992C533.671 133.351 531.109 131.91 529.508 129.348C527.906 126.785 527.746 123.902 528.226 122.087C528.547 120.166 529.347 119.365 529.668 119.525Z" fill="#263238"/>
<path d="M577.072 91.5522C576.111 92.1928 573.709 90.4312 570.506 89.3101C567.303 88.0289 564.26 87.8688 563.94 86.7477C563.779 86.2673 564.58 85.4665 566.022 84.9861C567.463 84.5056 569.705 84.5056 571.947 85.3064C574.189 86.1071 575.791 87.5485 576.591 88.8297C577.552 90.1109 577.552 91.2319 577.072 91.5522Z" fill="#263238"/>
<path d="M537.195 70.8396C536.554 71.1599 535.593 70.6795 534.472 69.8787C533.191 69.2381 531.749 68.2772 529.828 67.6366C527.906 66.996 526.304 66.5156 524.863 66.3554C523.422 66.0351 522.461 65.875 522.14 65.2344C521.98 64.5938 522.621 63.6329 524.383 62.9923C526.144 62.3517 528.707 62.1915 531.429 63.1524C534.152 64.1133 536.073 66.0351 536.874 67.6366C537.835 69.3983 537.835 70.5193 537.195 70.8396Z" fill="#263238"/>
<path d="M591.752 72.9216C591.752 72.9216 572.855 72.9216 555.292 58.4547C543.761 48.9525 529.347 42.3864 525.504 44.3082C521.5 46.23 517.817 59.4156 504.044 60.3765C504.044 60.3765 499.079 86.1072 489.15 82.9042C479.221 79.7012 494.435 41.4255 494.435 41.4255L522.141 34.8594L550.487 35.8203L575.951 41.5857L597.891 54.2908L591.752 72.9216Z" fill="#263238"/>
<path d="M451.408 412.598L468.864 471.907L604.404 430.588C633.551 421.727 649.726 390.391 640.278 361.297L606.966 257.467L534.792 275.457L574.509 371.6L451.408 412.598Z" fill="#BE1527"/>
<path d="M607.5 429.468C607.5 429.468 607.34 429.628 606.86 429.628C606.379 429.788 605.739 429.948 604.938 430.268C603.176 430.749 600.614 431.55 597.411 432.671C590.685 434.753 581.076 437.635 568.904 441.372C544.562 448.792 510.183 459.202 470.145 471.427L469.825 471.587L469.665 471.267C463.579 453.116 457.814 433.151 450.927 412.759L450.767 412.438L451.088 412.278C452.209 411.958 453.33 411.478 454.451 411.157C499.56 396.05 541.359 382.224 574.189 371.28L574.029 371.76C564.42 348.432 556.573 329.321 551.128 315.975C548.405 309.409 546.323 304.231 544.882 300.547C544.241 298.786 543.601 297.505 543.28 296.544C542.96 295.583 542.8 295.102 542.8 295.102C542.8 295.102 542.96 295.583 543.44 296.383C543.761 297.344 544.401 298.626 545.202 300.387C546.643 303.911 548.886 309.089 551.608 315.655C557.053 329.001 565.061 347.952 574.67 371.28L574.83 371.6L574.509 371.76C541.679 382.704 500.093 396.69 454.931 411.798C453.81 412.118 452.529 412.599 451.568 412.919L451.888 412.438C458.615 432.831 464.54 452.956 470.466 470.946L469.985 470.626C510.023 458.562 544.401 448.259 568.744 440.892C580.915 437.208 590.685 434.326 597.251 432.35C600.614 431.389 603.176 430.589 604.938 430.108C605.739 429.788 606.379 429.628 606.86 429.628C607.34 429.468 607.5 429.468 607.5 429.468Z" fill="#263238"/>
<path d="M599.653 388.629C599.493 388.629 598.692 387.188 596.77 384.946C595.009 382.704 592.126 379.821 588.442 377.365C584.759 374.963 581.076 373.522 578.193 372.721C575.47 371.92 573.549 371.76 573.709 371.6C573.709 371.6 574.189 371.6 574.99 371.6C575.791 371.6 576.912 371.92 578.353 372.241C581.236 372.881 585.079 374.323 588.923 376.885C592.606 379.447 595.489 382.33 597.251 384.786C598.051 385.907 598.692 387.028 599.172 387.668C599.493 388.309 599.653 388.629 599.653 388.629Z" fill="#263238"/>
<path d="M566.662 280.315C566.502 280.315 566.182 276.471 566.182 271.453C566.182 266.649 566.342 262.592 566.662 262.592C566.822 262.592 567.143 266.435 567.143 271.453C567.143 276.418 566.982 280.315 566.662 280.315Z" fill="#FAFAFA"/>
<path d="M593.888 281.756C593.727 281.756 592.286 278.073 591.005 273.375C589.564 268.731 588.603 264.674 588.923 264.674C589.083 264.674 590.524 268.357 591.806 273.055C593.247 277.753 594.208 281.756 593.888 281.756Z" fill="#FAFAFA"/>
<path d="M577.072 306.366C577.072 306.526 573.228 306.526 568.904 305.085C564.42 303.804 561.217 301.882 561.377 301.722C561.537 301.561 564.901 303.003 569.225 304.284C573.388 305.672 577.072 306.206 577.072 306.366Z" fill="#FAFAFA"/>
<path d="M607.821 319.979C607.66 319.979 607.981 316.135 608.781 311.598C609.582 306.953 610.383 303.217 610.703 303.377C610.863 303.377 610.543 307.22 609.742 311.758C608.942 316.295 608.141 319.979 607.821 319.979Z" fill="#FAFAFA"/>
<path d="M596.77 342.186C596.61 342.346 594.848 338.823 592.767 334.446C590.845 330.122 589.403 326.385 589.564 326.385C589.724 326.225 591.485 329.748 593.567 334.125C595.649 338.503 597.091 342.026 596.77 342.186Z" fill="#FAFAFA"/>
<path d="M592.286 361.457C592.126 361.618 588.763 360.176 584.759 358.254C580.595 356.333 577.392 354.571 577.552 354.251C577.712 354.091 581.076 355.532 585.079 357.454C589.243 359.536 592.446 361.297 592.286 361.457Z" fill="#FAFAFA"/>
<path d="M627.038 356.333C627.199 356.493 625.757 359.696 623.996 363.753C622.234 367.81 620.953 371.173 620.793 370.959C620.633 370.959 621.433 367.436 623.195 363.379C624.957 359.375 626.718 356.333 627.038 356.333Z" fill="#FAFAFA"/>
<path d="M617.269 403.096C617.109 403.096 616.469 399.093 615.988 394.074C615.508 389.11 615.348 385.053 615.508 385.053C615.668 385.053 616.309 389.056 616.789 394.074C617.43 398.932 617.59 402.936 617.269 403.096Z" fill="#FAFAFA"/>
<path d="M592.927 417.723C592.766 417.883 589.884 415.481 586.521 412.438C583.158 409.395 580.595 406.673 580.755 406.513C580.915 406.353 583.798 408.755 587.161 411.798C590.364 415.001 593.087 417.563 592.927 417.723Z" fill="#FAFAFA"/>
<path d="M550.647 422.101C550.807 422.261 548.565 425.464 545.683 429.521C542.8 433.525 540.237 436.621 540.077 436.461C539.917 436.3 542.159 433.097 545.042 429.04C547.925 424.983 550.487 421.94 550.647 422.101Z" fill="#FAFAFA"/>
<path d="M563.94 402.135C563.779 402.295 560.737 399.893 557.374 396.37C554.171 392.847 551.928 389.644 552.249 389.483C552.409 389.323 554.811 392.366 558.014 395.889C561.377 399.413 564.1 401.975 563.94 402.135Z" fill="#FAFAFA"/>
<path d="M532.07 406.673C532.07 406.833 529.347 407.794 525.664 407.474C521.98 407.153 519.418 406.032 519.418 405.712C519.578 405.552 522.14 406.352 525.664 406.513C529.187 406.833 532.07 406.513 532.07 406.673Z" fill="#FAFAFA"/>
<path d="M511.944 441.852C511.784 441.852 510.984 438.81 510.343 434.913C509.702 431.069 509.382 427.866 509.542 427.866C509.702 427.866 510.503 430.909 511.144 434.753C511.784 438.649 512.265 441.852 511.944 441.852Z" fill="#FAFAFA"/>
<path d="M488.082 453.917C487.922 454.077 484.399 451.995 480.075 449.273C475.751 446.55 472.387 444.148 472.387 443.988C472.548 443.828 476.071 445.91 480.395 448.632C484.879 451.355 488.242 453.757 488.082 453.917Z" fill="#FAFAFA"/>
<path d="M496.73 411.157C496.89 411.317 494.648 414.04 491.926 417.723C489.363 421.247 487.442 424.45 487.281 424.289C487.121 424.129 488.723 420.926 491.285 417.189C493.848 413.559 496.57 410.997 496.73 411.157Z" fill="#FAFAFA"/>
<path d="M478.153 419.378C477.993 419.538 475.911 418.737 473.508 417.456C470.946 416.175 469.024 415.054 469.184 414.894C469.345 414.734 471.427 415.534 473.829 416.816C476.391 417.883 478.313 419.058 478.153 419.378Z" fill="#FAFAFA"/>
<g opacity="0.2">
<g opacity="0.2">
<path opacity="0.2" d="M573.388 369.038C580.595 369.839 587.962 370.479 595.169 371.44C597.731 371.76 600.133 372.081 602.536 373.042C604.778 374.002 607.02 375.764 607.821 378.166C608.621 380.569 607.981 383.611 605.739 384.893C603.817 386.174 601.254 385.693 599.172 384.572C597.091 383.451 595.489 381.85 593.727 380.248C590.524 377.526 586.681 375.604 582.677 374.483C580.915 374.002 578.994 373.682 577.392 372.561C575.791 371.6 574.67 369.678 575.15 367.757" fill="black"/>
</g>
</g>
<path d="M543.44 123.368C545.042 123.208 546.697 123.208 548.298 123.475C549.046 123.475 549.793 123.475 550.007 123.048C550.22 122.301 550.22 121.5 550.007 120.753C549.686 118.884 549.313 116.802 548.939 114.667C547.498 106.072 546.643 99.0791 546.964 99.0257C547.284 98.9723 548.832 105.912 550.167 114.507C550.487 116.642 550.861 118.617 551.128 120.592C551.394 121.553 551.341 122.621 550.914 123.582C550.754 123.795 550.54 124.009 550.327 124.169C550.06 124.329 549.793 124.383 549.526 124.436C549.099 124.489 548.672 124.489 548.245 124.436C546.59 124.223 544.989 123.902 543.44 123.368Z" fill="#263238"/>
<path d="M440 -38H-635V534H440V-38Z" fill="#E9ECF2"/>
</g>
<defs>
<clipPath id="clip0_59_47">
<rect width="643" height="533.831" fill="white"/>
</clipPath>
<clipPath id="clip1_59_47">
<rect width="100.623" height="17.9516" fill="white" transform="translate(429.477 262) rotate(24.6157)"/>
</clipPath>
</defs>
</svg>
